<svg xmlns="http://www.w3.org/2000/svg" viewBox="0 0 24 24" fill="#f1f5f9" width="24" height="24">
  <path d="M12 .297c-6.63 0-12 5.373-12 12 0 5.303 3.438 9.8 8.205 11.385.6.113.82-.258.82-.577 0-.285-.01-1.04-.015-2.04-3.338.724-4.042-1.61-4.042-1.61C4.422 17.07 3.633 16.7 3.633 16.7c-1.087-.744.083-.729.083-.729 1.205.084 1.84 1.238 1.84 1.238 1.07 1.835 2.809 1.305 3.495.998.108-.776.418-1.305.762-1.605-2.665-.305-5.466-1.334-5.466-5.932 0-1.312.469-2.383 1.236-3.222-.123-.304-.536-1.523.117-3.176 0 0 1.008-.322 3.301 1.23a11.51 11.51 0 013.003-.404c1.018.005 2.045.138 3.003.404 2.292-1.552 3.3-1.23 3.3-1.23.654 1.653.241 2.872.118 3.176.77.839 1.235 1.91 1.235 3.222 0 4.61-2.803 5.624-5.475 5.922.43.372.823 1.102.823 2.222 0 1.606-.014 2.903-.014 3.296 0 .318.216.688.825.571C20.565 22.092 24 17.592 24 12.297c0-6.627-5.373-12-12-12"></path>
</svg>
