<svg xmlns="http://www.w3.org/2000/svg" viewBox="0 0 24 24" fill="#0a66c2" width="24" height="24">
  <path d="M20.45 20.45h-3.554v-5.569c0-1.328-.024-3.038-1.852-3.038-1.854 0-2.137 1.447-2.137 2.941v5.666H9.354V9h3.414v1.561h.047c.477-.901 1.637-1.852 3.371-1.852 3.604 0 4.27 2.372 4.27 5.456v6.285zM5.337 7.433a2.067 2.067 0 1 1 0-4.134 2.067 2.067 0 0 1 0 4.134zm1.777 13.017H3.56V9h3.554v11.45zM22.225 0H1.771C.792 0 0 .774 0 1.729v20.542C0 23.227.792 24 1.771 24h20.451C23.204 24 24 23.227 24 22.271V1.729C24 .774 23.204 0 22.225 0z"></path>
</svg>
