<svg xmlns="http://www.w3.org/2000/svg" viewBox="0 0 24 24" fill="#25d366" width="24" height="24">
  <path d="M20.52 3.48A11.77 11.77 0 0012.03 0C5.42 0 .06 5.36.06 11.98c0 2.11.55 4.17 1.6 6.01L0 24l6.2-1.6a12.07 12.07 0 005.83 1.48h.01c6.6 0 11.97-5.36 11.97-11.98a11.77 11.77 0 00-3.49-8.42zM12.03 22.09h-.01a10.07 10.07 0 01-5.13-1.4l-.37-.22-3.68.95.98-3.59-.24-.38a10.05 10.05 0 01-1.55-5.28c0-5.57 4.54-10.1 10.1-10.1 2.7 0 5.23 1.05 7.14 2.96a10.02 10.02 0 012.96 7.14c0 5.57-4.54 10.1-10.1 10.1zm5.54-7.6c-.3-.15-1.77-.87-2.04-.97-.27-.1-.47-.15-.67.15s-.77.97-.94 1.17c-.17.2-.34.22-.64.07-.3-.15-1.26-.46-2.4-1.46-.89-.79-1.49-1.77-1.67-2.07-.17-.3-.02-.46.13-.61.13-.13.3-.34.44-.51.15-.17.2-.3.3-.5.1-.2.05-.37-.02-.52-.07-.15-.67-1.62-.92-2.23-.24-.58-.48-.5-.67-.51h-.57c-.2 0-.52.07-.8.37-.27.3-1.04 1.02-1.04 2.48 0 1.46 1.07 2.86 1.22 3.06.15.2 2.1 3.2 5.08 4.49.71.31 1.26.49 1.69.62.71.22 1.36.19 1.87.12.57-.09 1.77-.72 2.02-1.41.25-.7.25-1.29.17-1.41-.08-.12-.27-.19-.57-.34z"></path>
</svg>
